<?xml version="1.0" standalone="no"?>
<!DOCTYPE svg PUBLIC "-//W3C//DTD SVG 20010904//EN"
 "http://www.w3.org/TR/2001/REC-SVG-20010904/DTD/svg10.dtd">
<svg version="1.0" xmlns="http://www.w3.org/2000/svg"
 width="512.000000pt" height="512.000000pt" viewBox="0 0 512.000000 512.000000"
 preserveAspectRatio="xMidYMid meet">

<g transform="translate(0.000000,512.000000) scale(0.100000,-0.100000)"
fill="#000000" stroke="none">
<path d="M0 2560 l0 -2560 2560 0 2560 0 0 2560 0 2560 -2560 0 -2560 0 0
-2560z m3626 1635 c49 -31 101 -100 106 -143 l3 -22 -1170 -1 c-643 0 -1170 3
-1170 8 3 63 58 136 129 169 l51 24 1001 -3 1001 -2 49 -30z m245 -361 c59
-28 125 -87 150 -135 10 -21 19 -41 19 -44 0 -3 -661 -5 -1470 -5 -1020 0
-1470 3 -1470 10 0 23 31 68 73 107 51 47 90 69 144 82 22 5 569 8 1273 8
l1235 -2 46 -21z m180 -377 c74 -31 120 -67 163 -130 69 -101 67 -60 64 -1188
l-3 -1014 -24 -60 c-33 -81 -115 -163 -196 -196 l-60 -24 -1435 0 -1435 0 -60
24 c-81 33 -163 115 -196 196 l-24 60 -3 1014 c-3 1126 -5 1083 63 1186 43 63
89 100 164 132 l56 23 1435 0 1435 0 56 -23z"/>
<path d="M1154 3269 c-35 -10 -82 -53 -95 -87 -5 -13 -9 -470 -9 -1025 0 -982
0 -1003 20 -1035 11 -18 34 -41 52 -52 33 -20 54 -20 1438 -20 1384 0 1405 0
1438 20 18 11 41 34 52 52 20 32 20 49 18 1048 -3 997 -3 1015 -23 1042 -11
14 -33 35 -50 45 -29 17 -91 18 -1420 20 -809 1 -1403 -2 -1421 -8z"/>
</g>
</svg>
